<svg version="1.1" xmlns="http://www.w3.org/2000/svg" xmlns:xlink="http://www.w3.org/1999/xlink" width="275.27327" height="164.16216" viewBox="0,0,275.27327,164.16216"><g transform="translate(-182.36338,-97.91892)"><g stroke-miterlimit="10"><path d="M193.36339,261.08108c-5.52285,0 -10,-4.47715 -10,-10v-142.16216c0,-5.52285 4.47715,-10 10,-10h253.27327c5.52285,0 10,4.47715 10,10v142.16216c0,5.52285 -4.47715,10 -10,10z" fill="#e6e6e6" stroke="#000000" stroke-width="2"/><path d="M193.59887,125.69111c-5.6529,0 -10.23548,-4.47715 -10.23548,-10v-4.8745c0,-5.52285 4.58258,-10 10.23548,-10h252.80231c5.6529,0 10.23548,4.47715 10.23548,10v4.8745c0,5.52285 -4.58258,10 -10.23548,10z" fill="#919191" stroke="#000000" stroke-width="2"/><text transform="translate(273.28859,122.1391) scale(0.46153,0.46153)" font-size="40" xml:space="preserve" fill="#ffffff" stroke="none" stroke-width="1" font-family="Bits and Bytes" font-weight="normal" text-anchor="start"><tspan x="0" dy="0">TEAMS</tspan></text></g></g></svg>