<svg version="1.1" xmlns="http://www.w3.org/2000/svg" xmlns:xlink="http://www.w3.org/1999/xlink" width="232.3013" height="186.84104" viewBox="0,0,232.3013,186.84104"><g transform="translate(-203.84935,-86.57948)"><g stroke-miterlimit="10"><path d="M213.34935,270.92052c-3.86599,0 -7,-3.13401 -7,-7v-167.84104c0,-3.86599 3.13401,-7 7,-7h213.3013c3.86599,0 7,3.13401 7,7v167.84104c0,3.86599 -3.13401,7 -7,7z" fill="#ffffff" stroke="#000000" stroke-width="5"/><path d="M283.31054,155.92928l4.05431,-6.90573c0,0 38.69481,22.71745 51.02567,29.9568c7.01134,4.11631 18.29895,6.61605 18.29895,6.61605l-7.65813,13.04417c0,0 -7.68375,-8.63818 -14.69512,-12.75449c-12.33085,-7.23935 -51.02567,-29.9568 -51.02567,-29.9568z" fill="#989898" stroke="none" stroke-width="0"/><path d="M319.87706,194.45089l12.99841,-17.42746l7.03213,5.245l-12.99841,17.42746z" fill="#989898" stroke="none" stroke-width="0"/><path d="M338.44184,210.97644l-6.57383,-26.78794l9.50542,-2.33265c0,0 5.00361,20.38947 5.96597,24.31102c0.30717,1.25173 0.60783,2.47692 0.60783,2.47692z" fill="#989898" stroke="none" stroke-width="0"/><path d="M318.97888,162.90476l4.05431,-6.90573l26.85563,15.76673l-4.05431,6.90573z" fill="#989898" stroke="none" stroke-width="0"/><path d="M320.86762,172.46311l5.47092,-6.44352l3.05218,2.59148l-5.47092,6.44352z" fill="#989898" stroke="none" stroke-width="0"/><text transform="translate(260,120.95717) scale(0.5,0.5)" font-size="40" xml:space="preserve" fill="#989898" stroke="none" stroke-width="1" font-family="Bits and Bytes" font-weight="normal" text-anchor="start"><tspan x="0" dy="0">SNIPER</tspan></text><text transform="translate(260,254.90421) scale(0.5,0.5)" font-size="40" xml:space="preserve" fill="#666666" stroke="none" stroke-width="1" font-family="Bits and Bytes" font-weight="normal" text-anchor="start"><tspan x="0" dy="0">BOUGHT</tspan></text></g></g></svg>