<svg version="1.1" xmlns="http://www.w3.org/2000/svg" xmlns:xlink="http://www.w3.org/1999/xlink" width="253.95349" height="243.51917" viewBox="0,0,253.95349,243.51917"><g transform="translate(-113.02326,-58.24041)"><g stroke-miterlimit="10"><g fill="#ffffff" stroke="#000000" stroke-width="2"><path d="M115.7608,300.75959v-83.4023h27.63912v83.4023z"/><path d="M115.67999,273.03965h83.4023v27.63914h-83.4023z"/><path d="M365.97675,300.67877h-83.4023v-27.63912h83.4023z"/><path d="M338.25679,300.75959v-83.4023h27.63914v83.4023z"/><path d="M364.23918,59.24041v83.4023h-27.63912v-83.4023z"/><path d="M364.32001,86.96037h-83.4023v-27.63914h83.4023z"/><path d="M114.02326,59.32123h83.4023v27.63914h-83.4023z"/><path d="M141.74319,59.24041v83.4023h-27.63914v-83.4023z"/></g><path d="M116.17728,209v-58h24v58z" fill="#d1d1d1" stroke="none" stroke-width="0"/><path d="M338.17728,209v-58h24v58z" fill="#d1d1d1" stroke="none" stroke-width="0"/><path d="M211,60l58,0l0,24l-58,0z" fill="#d1d1d1" stroke="none" stroke-width="0"/><path d="M211,274h58v24h-58z" fill="#d1d1d1" stroke="none" stroke-width="0"/></g></g></svg>