<svg version="1.1" xmlns="http://www.w3.org/2000/svg" xmlns:xlink="http://www.w3.org/1999/xlink" width="118.60809" height="114.69944" viewBox="0,0,118.60809,114.69944"><g transform="translate(-191.11903,-137.38628)"><g stroke="#000000" stroke-width="2" stroke-miterlimit="10"><path d="M204.2959,251.08572c-6.7251,0 -12.17687,-4.47715 -12.17687,-10v-92.69944c0,-5.52285 5.45177,-10 12.17687,-10h92.25435c6.7251,0 12.17687,4.47715 12.17687,10v92.69944c0,5.52285 -5.45177,10 -12.17687,10z" fill="#ff7373"/><path d="M231.9141,207.04639c-6.79884,-10.22223 -4.02364,-24.02052 6.19859,-30.81937c10.22223,-6.79884 24.02053,-4.02364 30.81937,6.19859c6.79884,10.22223 4.02364,24.02052 -6.19859,30.81937c-10.22223,6.79884 -24.02053,4.02364 -30.81937,-6.19859z" fill="#ff4b4b"/><path d="M253.2366,190.01047c-1.07049,-1.60951 -0.63353,-3.78208 0.97598,-4.85258l8.63825,-5.74533c1.60951,-1.07049 3.78208,-0.63353 4.85257,0.97598l2.63235,3.95781c1.07049,1.60951 0.63353,3.78208 -0.97598,4.85258l-8.63824,5.74533c-1.60951,1.07049 -3.78208,0.63353 -4.85258,-0.97598z" fill="#ffffff"/></g></g></svg>