<svg version="1.1" xmlns="http://www.w3.org/2000/svg" xmlns:xlink="http://www.w3.org/1999/xlink" width="275.27327" height="227.05365" viewBox="0,0,275.27327,227.05365"><g transform="translate(-182.36341,-97.91891)"><g stroke-miterlimit="10"><path d="M193.36341,323.97256c-5.52285,0 -10,-6.21353 -10,-13.87831v-197.29703c0,-7.66478 4.47715,-13.87831 10,-13.87831h253.27327c5.52285,0 10,6.21353 10,13.87831v197.29703c0,7.66478 -4.47715,13.87831 -10,13.87831z" fill="#e6e6e6" stroke="#000000" stroke-width="2"/><path d="M193.5989,125.69111c-5.6529,0 -10.23548,-4.47715 -10.23548,-10v-4.8745c0,-5.52285 4.58258,-10 10.23548,-10h252.80231c5.6529,0 10.23548,4.47715 10.23548,10v4.8745c0,5.52285 -4.58258,10 -10.23548,10z" fill="#919191" stroke="#000000" stroke-width="2"/><text transform="translate(273.2886,122.1391) scale(0.46153,0.46153)" font-size="40" xml:space="preserve" fill="#ffffff" stroke="none" stroke-width="1" font-family="Bits and Bytes" font-weight="normal" text-anchor="start"><tspan x="0" dy="0">STATS</tspan></text></g></g></svg>