<svg version="1.1" xmlns="http://www.w3.org/2000/svg" xmlns:xlink="http://www.w3.org/1999/xlink" width="275.27327" height="164.16216" viewBox="0,0,275.27327,164.16216"><g transform="translate(-182.36337,-97.91892)"><g stroke-miterlimit="10"><path d="M193.36338,261.08108c-5.52285,0 -10,-4.47715 -10,-10v-142.16216c0,-5.52285 4.47715,-10 10,-10h253.27327c5.52285,0 10,4.47715 10,10v142.16216c0,5.52285 -4.47715,10 -10,10z" fill="#e6e6e6" stroke="#000000" stroke-width="2"/><path d="M193.59886,125.69111c-5.6529,0 -10.23548,-4.47715 -10.23548,-10v-4.8745c0,-5.52285 4.58258,-10 10.23548,-10h252.80231c5.6529,0 10.23548,4.47715 10.23548,10v4.8745c0,5.52285 -4.58258,10 -10.23548,10z" fill="#919191" stroke="#000000" stroke-width="2"/><text transform="translate(209.23354,122.1391) scale(0.46153,0.46153)" font-size="40" xml:space="preserve" fill="#ffffff" stroke="none" stroke-width="1" font-family="Bits and Bytes" font-weight="normal" text-anchor="start"><tspan x="0" dy="0">FREE For ALL</tspan></text><path d="M221.44729,234.68321c-6.79884,-10.22223 -4.02364,-24.02052 6.19859,-30.81937c10.22223,-6.79884 24.02053,-4.02364 30.81937,6.19859c6.79884,10.22223 4.02364,24.02052 -6.19859,30.81937c-10.22223,6.79884 -24.02053,4.02364 -30.81937,-6.19859z" fill="#ffffff" stroke="#000000" stroke-width="2"/><path d="M242.76975,217.64729c-1.07049,-1.60951 -0.63353,-3.78208 0.97598,-4.85258l8.63825,-5.74533c1.60951,-1.07049 3.78208,-0.63353 4.85257,0.97598l2.63235,3.95781c1.07049,1.60951 0.63353,3.78208 -0.97598,4.85258l-8.63824,5.74533c-1.60951,1.07049 -3.78208,0.63353 -4.85258,-0.97598z" fill="#ffffff" stroke="#000000" stroke-width="2"/><path d="M443.074,214.86238c-0.03205,12.27669 -10.01026,22.20292 -22.28695,22.17087c-12.27669,-0.03205 -22.20293,-10.01026 -22.17088,-22.28695c0.03205,-12.27669 10.01026,-22.20292 22.28695,-22.17087c12.27669,0.03205 22.20292,10.01026 22.17087,22.28695z" fill="#ffffff" stroke="#000000" stroke-width="2"/><path d="M415.87924,217.168c-0.00504,1.933 -1.57613,3.4959 -3.50912,3.49086l-10.37436,-0.02709c-1.933,-0.00504 -3.49589,-1.57613 -3.49084,-3.50913l0.01241,-4.75324c0.00504,-1.933 1.57613,-3.49589 3.50912,-3.49085l10.37436,0.02708c1.933,0.00504 3.49589,1.57613 3.49085,3.50912z" fill="#ffffff" stroke="#000000" stroke-width="2"/><path d="M360.29513,217.21452c-0.00504,1.933 -1.57613,3.4959 -3.50912,3.49086l-10.37436,-0.02709c-1.933,-0.00504 -3.49589,-1.57613 -3.49084,-3.50913l0.01241,-4.75324c0.00504,-1.933 1.57613,-3.49589 3.50912,-3.49085l10.37436,0.02708c1.933,0.00504 3.49589,1.57613 3.49085,3.50912z" fill="#ffffff" stroke="#000000" stroke-width="2"/><path d="M285.86258,200.9682c0.95711,1.67941 0.37157,3.81673 -1.30784,4.77384l-9.0134,5.1368c-1.67941,0.95711 -3.81672,0.37157 -4.77383,-1.30785l-2.35354,-4.12969c-0.95711,-1.67941 -0.37157,-3.81673 1.30784,-4.77384l9.0134,-5.1368c1.67941,-0.95711 3.81673,-0.37157 4.77384,1.30784z" fill="#ffffff" stroke="#000000" stroke-width="2"/><path d="M314.70907,223.3121l-24.66234,-71.0578l19.79564,-6.94053l24.66234,71.0578z" fill="#ffffff" stroke="#000000" stroke-width="2"/></g></g></svg>