<svg version="1.1" xmlns="http://www.w3.org/2000/svg" xmlns:xlink="http://www.w3.org/1999/xlink" width="232.3013" height="186.84104" viewBox="0,0,232.3013,186.84104"><g transform="translate(-203.84935,-86.57948)"><g stroke-miterlimit="10"><path d="M213.34935,270.92052c-3.86599,0 -7,-3.13401 -7,-7v-167.84104c0,-3.86599 3.13401,-7 7,-7h213.3013c3.86599,0 7,3.13401 7,7v167.84104c0,3.86599 -3.13401,7 -7,7z" fill="#ffffff" stroke="#000000" stroke-width="5"/><text transform="translate(290,118.58998) scale(0.5,0.5)" font-size="40" xml:space="preserve" fill="#989898" stroke="none" stroke-width="1" font-family="Bits and Bytes" font-weight="normal" text-anchor="start"><tspan x="0" dy="0">SMG</tspan></text><text transform="translate(263.32328,257.20241) scale(0.5,0.5)" font-size="40" xml:space="preserve" fill="#666666" stroke="none" stroke-width="1" font-family="Bits and Bytes" font-weight="normal" text-anchor="start"><tspan x="0" dy="0">BOUGHT</tspan></text><path d="M283.5057,158.85657l5.56566,-10.13069l64.13299,35.23375l-5.56566,10.13069z" fill="#989898" stroke="none" stroke-width="0"/><path d="M305.90374,190.70995l27.26207,-13.69424l4.4175,8.79422l-27.26207,13.69424z" fill="#989898" stroke="none" stroke-width="0"/><path d="M325.79622,208.11354l7.37469,-26.55067l11.37886,3.16058l-7.37469,26.55067z" fill="#989898" stroke="none" stroke-width="0"/><path d="M320.47622,172.57074l6.07163,-11.05167l29.94645,16.45215l-6.07163,11.05167z" fill="#989898" stroke="none" stroke-width="0"/></g></g></svg>