<svg version="1.1" xmlns="http://www.w3.org/2000/svg" xmlns:xlink="http://www.w3.org/1999/xlink" width="37.40321" height="37.40321" viewBox="0,0,37.40321,37.40321"><g transform="translate(-301.2984,-161.2984)"><g stroke-miterlimit="10"><path d="M310.2984,196.20161c-3.58985,0 -6.5,-2.91015 -6.5,-6.5v-19.40321c0,-3.58985 2.91015,-6.5 6.5,-6.5h19.40321c3.58985,0 6.5,2.91015 6.5,6.5v19.40321c0,3.58985 -2.91015,6.5 -6.5,6.5z" fill="#ffffff" stroke="#a5a5a5" stroke-width="5"/><path d="M307.92549,173.70292l1.31829,-2.24545c0,0 12.58191,7.38675 16.59138,9.74068c2.27979,1.33845 5.95004,2.15126 5.95004,2.15126l-2.4901,4.24141c0,0 -2.49843,-2.80877 -4.77823,-4.14722c-4.00947,-2.35393 -16.59138,-9.74068 -16.59138,-9.74068z" fill="#989898" stroke="none" stroke-width="0"/><path d="M319.81537,186.22851l4.22653,-5.66667l2.28655,1.70545l-4.22653,5.66667z" fill="#989898" stroke="none" stroke-width="0"/><path d="M325.85185,191.60192l-2.13753,-8.7103l3.09076,-0.75848c0,0 1.62696,6.62979 1.93988,7.90491c0.09988,0.40701 0.19764,0.80539 0.19764,0.80539z" fill="#989898" stroke="none" stroke-width="0"/><path d="M319.52332,175.97105l1.31829,-2.24545l8.73231,5.12667l-1.31829,2.24545z" fill="#989898" stroke="none" stroke-width="0"/><path d="M320.13746,179.07902l1.77891,-2.09516l0.99244,0.84264l-1.77891,2.09516z" fill="#989898" stroke="none" stroke-width="0"/></g></g></svg>