<svg version="1.1" xmlns="http://www.w3.org/2000/svg" xmlns:xlink="http://www.w3.org/1999/xlink" width="37.40321" height="37.40321" viewBox="0,0,37.40321,37.40321"><g transform="translate(-301.2984,-161.2984)"><g stroke-miterlimit="10"><path d="M310.2984,196.20161c-3.58985,0 -6.5,-2.91015 -6.5,-6.5v-19.40321c0,-3.58985 2.91015,-6.5 6.5,-6.5h19.40321c3.58985,0 6.5,2.91015 6.5,6.5v19.40321c0,3.58985 -2.91015,6.5 -6.5,6.5z" fill="#ffffff" stroke="#a5a5a5" stroke-width="5"/><g fill="#989898" stroke="none" stroke-width="0"><path d="M329.77373,189.22005c0,0 -1.08438,-1.938 -1.91875,-2.49061c-2.51594,-1.66635 -15.15371,-10.03654 -15.15371,-10.03654l2.2264,-3.36433c0,0 12.8573,8.90106 15.3013,10.59304c0.77005,0.5331 2.52759,0.42125 2.52759,0.42125z"/><path d="M311.00571,176.67411c-1.35278,-0.89522 -4.49973,-4.55467 -3.60451,-5.90745c0.89522,-1.35278 5.49362,0.11337 6.8464,1.00859c1.35278,0.89522 1.72371,2.7176 0.82848,4.07038c-0.89522,1.35278 -2.7176,1.72371 -4.07038,0.82848z"/><path d="M324.31952,188.90984l2.86491,-5.04225l1.5346,0.87193l-2.86491,5.04225z"/><path d="M316.45292,183.06355l8.83621,-2.57318l0.56399,1.9367l-8.83621,2.57318z"/></g></g></g></svg>