<svg version="1.1" xmlns="http://www.w3.org/2000/svg" xmlns:xlink="http://www.w3.org/1999/xlink" width="37.40321" height="37.40321" viewBox="0,0,37.40321,37.40321"><g transform="translate(-301.2984,-161.2984)"><g stroke-miterlimit="10"><path d="M310.2984,196.20161c-3.58985,0 -6.5,-2.91015 -6.5,-6.5v-19.40321c0,-3.58985 2.91015,-6.5 6.5,-6.5h19.40321c3.58985,0 6.5,2.91015 6.5,6.5v19.40321c0,3.58985 -2.91015,6.5 -6.5,6.5z" fill="#ffffff" stroke="#a5a5a5" stroke-width="5"/><path d="M309.11003,173.69076l1.6608,-3.02302l19.13741,10.51382l-1.6608,3.02302z" fill="#989898" stroke="none" stroke-width="0"/><path d="M315.79365,183.19587l8.13506,-4.08639l1.31819,2.62421l-8.13506,4.08639z" fill="#989898" stroke="none" stroke-width="0"/><path d="M321.7296,188.38914l2.20062,-7.92277l3.39547,0.94312l-2.20062,7.92277z" fill="#989898" stroke="none" stroke-width="0"/><path d="M320.1421,177.78309l1.81178,-3.29784l8.93608,4.90936l-1.81178,3.29784z" fill="#989898" stroke="none" stroke-width="0"/></g></g></svg>