<svg version="1.1" xmlns="http://www.w3.org/2000/svg" xmlns:xlink="http://www.w3.org/1999/xlink" width="831.02238" height="448.04563" viewBox="0,0,831.02238,448.04563"><g transform="translate(100.01569,45.52432)"><g fill="#ffffff" stroke="#000000" stroke-width="2" stroke-miterlimit="10"><path d="M247.25314,250.77401v-34.8631h13.15713v34.8631z"/><path d="M247.20647,234.76861h48.15622v15.95875h-48.15622z"/><path d="M391.72705,250.72735h-48.15622v-15.95873h48.15622z"/><path d="M375.72161,250.77401v-34.8631h15.95875v34.8631z"/><path d="M391.70863,111.3216v44.15377h-15.95873v-44.15377z"/><path d="M390.77045,127.32701h-45.41908v-15.95875h45.41908z"/><path d="M246.24987,111.36827h48.15623v15.95875h-48.15623z"/><path d="M262.25529,111.3216v44.15377h-15.95875v-44.15377z"/><path d="M281.29652,110.86787v-81.97907h13.15713v81.97907z"/><path d="M344.70465,111.39498v-81.97906h12.00234v81.97906z"/><path d="M294.4069,34.2184h-81.97906v-13.15714h81.97906z"/><path d="M729.01324,-27.23961h-820.04956v-14.01396h820.04956z"/><path d="M424.69053,30.77637h-81.97906v-13.15714h81.97906z"/><path d="M716.40505,400.04879h-807.44137v-13.15713h807.44137z"/><path d="M19.44925,27.63982v304.96822h-15.95875v-304.9682z"/><path d="M624.56023,28.8888v304.96822h-15.95875v-304.9682z"/><path d="M136.1018,35.95989v-77.29442h20.96121v77.29442z"/><path d="M498.84888,35.95989v-77.29442h20.9612v77.29442z"/><path d="M77.14841,147.31628v-20.9612h41.92241v20.9612z"/><path d="M135.19654,200.69365l6.10933,-13.05174l66.44525,31.10203l-6.10933,13.05174z"/><path d="M71.34037,269.27975l5.32498,-14.79159l98.61065,35.49984l-5.32498,14.79159z"/><path d="M356.58145,250.62898v81.97907h-13.15713v-81.97907z"/><path d="M295.18289,251.41195v81.97906h-13.15713v-81.97906z"/><path d="M343.47108,327.27842h81.97906v13.15714h-81.97906z"/><path d="M213.18745,330.72049h81.97906v13.15714h-81.97906z"/><path d="M501.77617,324.22689v77.29442h-20.9612v-77.29442z"/><path d="M139.0291,324.22689v77.29442h-20.96121v-77.29442z"/><path d="M511.77049,135.38186v-20.9612h41.92241v20.9612z"/><path d="M429.19953,219.86129l-6.10933,-13.05174l66.44525,-31.10203l6.10933,13.05174z"/><path d="M460.89028,292.84517l-5.32498,-14.79161l98.61066,-35.49984l5.32498,14.79161z"/><path d="M74.14305,71.35574l-2.70046,-10.12673l50.63361,-13.5023l2.70046,10.12673z"/><path d="M506.06466,65.57017l2.70046,-10.12672l50.63361,13.5023l-2.70046,10.12672z"/><path d="M-83.05694,-44.52432v437.86023h-15.95875v-437.86023z"/><path d="M-63.24863,19.702c0,-4.88054 3.95647,-8.83699 8.83699,-8.83699c4.88054,0 8.83699,3.95646 8.83699,8.83699c0,4.88054 -3.95646,8.83701 -8.83699,8.83701c-4.88054,0 -8.83699,-3.95647 -8.83699,-8.83701z"/><path d="M-39.08899,82.32648c0,-4.88054 3.95646,-8.83699 8.83699,-8.83699c4.88054,0 8.83699,3.95646 8.83699,8.83699c0,4.88054 -3.95646,8.83699 -8.83699,8.83699c-4.88054,0 -8.83699,-3.95646 -8.83699,-8.83699z"/><path d="M-63.24863,142.97842c0,-4.88054 3.95647,-8.83699 8.83699,-8.83699c4.88054,0 8.83699,3.95646 8.83699,8.83699c0,4.88054 -3.95646,8.83699 -8.83699,8.83699c-4.88054,0 -8.83699,-3.95646 -8.83699,-8.83699z"/><path d="M-28.23992,197.78439c0,-4.88054 3.95646,-8.83699 8.83699,-8.83699c4.88054,0 8.83699,3.95646 8.83699,8.83699c0,4.88054 -3.95646,8.83699 -8.83699,8.83699c-4.88054,0 -8.83699,-3.95646 -8.83699,-8.83699z"/><path d="M-63.24863,236.66651c0,-4.88054 3.95646,-8.83699 8.83699,-8.83699c4.88054,0 8.83699,3.95646 8.83699,8.83699c0,4.88054 -3.95646,8.83699 -8.83699,8.83699c-4.88054,0 -8.83699,-3.95646 -8.83699,-8.83699z"/><path d="M-39.08899,310.14007c0,-4.88054 3.95647,-8.83699 8.83699,-8.83699c4.88054,0 8.83699,3.95646 8.83699,8.83699c0,4.88054 -3.95646,8.83699 -8.83699,8.83699c-4.88054,0 -8.83699,-3.95646 -8.83699,-8.83699z"/><path d="M715.37066,399.3686v-439.08081h14.63603v439.08081z"/><path d="M672.79313,64.0705v-15.96657h47.89972v15.96657z"/><path d="M616.9101,147.89502v-13.30548h49.23028v13.30548z"/><path d="M667.47093,237.04175v-18.62767h50.56082v18.62767z"/><path d="M622.2323,334.17173v-14.63603h51.89136v14.63603z"/></g></g></svg>