<svg version="1.1" xmlns="http://www.w3.org/2000/svg" xmlns:xlink="http://www.w3.org/1999/xlink" width="37.40321" height="37.40321" viewBox="0,0,37.40321,37.40321"><g transform="translate(-301.2984,-161.29839)"><g stroke-miterlimit="10"><path d="M310.2984,196.20161c-3.58985,0 -6.5,-2.91015 -6.5,-6.5v-19.40321c0,-3.58985 2.91015,-6.5 6.5,-6.5h19.40321c3.58985,0 6.5,2.91015 6.5,6.5v19.40321c0,3.58985 -2.91015,6.5 -6.5,6.5z" fill="#ffffff" stroke="#a5a5a5" stroke-width="5"/><g fill="#989898" stroke="none" stroke-width="0"><path d="M307.92549,173.70291l1.31829,-2.24545c0,0 12.58191,7.38675 16.59138,9.74068c2.27979,1.33845 5.95004,2.15126 5.95004,2.15126l-2.4901,4.24141c0,0 -2.49843,-2.80877 -4.77823,-4.14722c-4.00947,-2.35393 -16.59138,-9.74068 -16.59138,-9.74068z"/><path d="M312.64068,181.87824l7.50025,-3.42548l1.38221,3.02642l-7.50025,3.42548z"/><path d="M318.87686,188.25017l1.6393,-8.81766l3.12885,0.58169c0,0 -1.24775,6.7115 -1.48773,8.00234c-0.0766,0.41203 -0.15158,0.81531 -0.15158,0.81531z"/><path d="M315.90689,175.53707l1.31829,-2.24545l8.73231,5.12667l-1.31829,2.24545z"/></g></g></g></svg>