<svg version="1.1" xmlns="http://www.w3.org/2000/svg" xmlns:xlink="http://www.w3.org/1999/xlink" width="232.3013" height="186.84104" viewBox="0,0,232.3013,186.84104"><g transform="translate(-203.84935,-86.57948)"><g stroke-miterlimit="10"><path d="M213.34935,270.92052c-3.86599,0 -7,-3.13401 -7,-7v-167.84104c0,-3.86599 3.13401,-7 7,-7h213.3013c3.86599,0 7,3.13401 7,7v167.84104c0,3.86599 -3.13401,7 -7,7z" fill="#ffffff" stroke="#000000" stroke-width="5"/><text transform="translate(295.12917,116.95717) scale(0.5,0.5)" font-size="40" xml:space="preserve" fill="#989898" stroke="none" stroke-width="1" font-family="Bits and Bytes" font-weight="normal" text-anchor="start"><tspan x="0" dy="0">RPG</tspan></text><text transform="translate(260,254.90421) scale(0.5,0.5)" font-size="40" xml:space="preserve" fill="#666666" stroke="none" stroke-width="1" font-family="Bits and Bytes" font-weight="normal" text-anchor="start"><tspan x="0" dy="0">BOUGHT</tspan></text><g fill="#989898" stroke="none" stroke-width="0"><path d="M362.55328,220.14254c0,0 -4.72122,-8.43775 -8.35393,-10.84372c-10.95401,-7.25503 -65.97686,-43.69751 -65.97686,-43.69751l9.69339,-14.64776c0,0 55.97866,38.75381 66.61945,46.12042c3.35268,2.32103 11.00473,1.83406 11.00473,1.83406z"/><path d="M280.84028,165.51949c-5.88979,-3.89765 -19.59111,-19.83031 -15.69347,-25.72011c3.89765,-5.88979 23.91835,0.4936 29.80815,4.39124c5.88979,3.89765 7.50476,11.832 3.60707,17.72179c-3.89765,5.88979 -11.832,7.50476 -17.72179,3.60707z"/><path d="M338.80651,218.79193l12.47337,-21.95316l6.68141,3.79625l-12.47337,21.95316z"/><path d="M304.55658,193.33815l38.47146,-11.20322l2.45552,8.43209l-38.47146,11.20322z"/></g></g></g></svg>